<svg width="291" height="69" viewBox="0 0 291 69" fill="none" xmlns="http://www.w3.org/2000/svg">
<path d="M180.381 63.8145L180.395 63.8152L180.409 63.8154C207.881 64.1755 228.934 63.9366 249.862 61.1689C257.452 60.2024 264.897 58.3917 272.164 56.5927L272.172 56.5905C275.517 55.721 278.693 53.9917 281.42 52.1693C283.771 50.6278 285.225 48.8946 285.388 46.9258C285.553 44.9474 284.389 43.0542 282.308 41.2593C279.697 38.9328 276.553 36.8649 273.438 35.054L273.431 35.0503L273.425 35.0467C265.141 30.4472 256.057 27.3084 247.031 24.4268L247.03 24.4263C224.624 17.3289 201.419 12.7608 177.963 9.51676L177.96 9.51644C151.262 5.91101 124.56 4.34829 97.5869 5.06945C77.7659 5.55018 57.943 7.11252 38.3878 9.8771C32.8649 10.6575 27.3423 11.4678 21.822 12.2778L21.8213 12.2779C16.3178 13.0855 10.8166 13.8927 5.31568 14.6702C5.18684 14.6707 4.94835 14.6817 4.69737 14.8169C3.435 14.9591 2.49074 14.8566 1.85922 14.6039C1.23408 14.3538 0.938415 13.9741 0.855286 13.4925L0.844962 13.4327L0.825157 13.3753C0.730681 13.1016 0.737522 12.9137 0.779167 12.7766C0.821588 12.6368 0.924103 12.4712 1.15611 12.2862C1.64771 11.8942 2.57166 11.5322 4.02463 11.237C22.8769 7.99653 41.8295 4.76266 60.911 3.08595C81.4934 1.28749 102.065 0.329288 122.765 0.928279L122.766 0.928312C157.862 1.88709 192.416 6.20141 226.429 14.3492C239.874 17.5845 253.025 21.4132 265.628 26.7905C271.374 29.2917 276.861 32.3919 282.245 35.5113L282.246 35.5121C284.411 36.7604 286.36 38.8309 287.958 40.8486L287.959 40.8505C289.682 43.0107 290.405 45.2558 290.222 47.3847C290.04 49.5134 288.943 51.6259 286.835 53.5046C284.35 55.7193 281.192 57.5996 277.883 59.0154L277.872 59.02C270.169 62.4528 261.781 63.8826 253.301 65.0824C225.89 68.5549 198.468 68.7957 170.891 67.5967L170.89 67.5967C159.713 67.1166 148.544 66.6369 137.377 65.9174C122.973 64.9575 108.44 63.8781 94.0449 62.4392L94.0428 62.439C80.4563 61.1201 67.0064 59.4418 53.5582 57.2844L53.5572 57.2842C46.0643 56.0917 38.5614 54.0626 31.2893 52.0222L31.2851 52.021C27.892 51.0905 24.6022 49.3377 21.6734 47.44C18.5683 45.3042 17.0326 42.8477 16.8372 40.3837C16.6415 37.9145 17.776 35.2392 20.4349 32.6382L20.4349 32.6382L20.4415 32.6317C23.5537 29.5112 27.5989 27.6365 32.0253 25.9628L32.0255 25.9628C41.7851 22.2689 52.0955 20.1182 62.5797 18.4411L62.5844 18.4403C76.9391 16.0489 91.4282 15.2118 106.187 15.9293L106.187 15.9294L106.199 15.9298C107.983 15.9887 109.145 16.2543 109.825 16.6418C110.151 16.828 110.342 17.0289 110.452 17.2287C110.56 17.4256 110.617 17.6724 110.593 18.0001C110.57 18.2577 110.491 18.4542 110.364 18.6185C110.232 18.7894 110.02 18.9623 109.679 19.1203C108.978 19.4453 107.856 19.6519 106.2 19.7112C103.713 19.7793 101.221 19.8282 98.7257 19.8771C92.4667 19.9997 86.1862 20.1227 79.915 20.5526L79.9122 20.5528C64.9193 21.6363 50.1767 24.1656 36.098 28.9913C32.8146 30.0889 29.6698 31.5515 26.7986 33.2575L26.7899 33.2627L26.7814 33.2681C25.1246 34.314 23.8519 35.3808 23.003 36.4696C22.1501 37.5634 21.6974 38.7179 21.7708 39.9042C21.8441 41.0904 22.4355 42.1792 23.4132 43.1577C24.3858 44.1311 25.7728 45.03 27.5319 45.8603C30.8154 47.4452 34.3611 48.6594 38.0267 49.6276C49.2561 52.7624 60.7451 54.5681 72.3483 55.7706L72.3522 55.771C94.2981 57.9309 116.39 60.092 138.349 61.653C149.919 62.6061 161.642 63.06 170.904 63.4185C174.48 63.557 177.689 63.6812 180.381 63.8145Z" fill="#123AC8" stroke="#FE4236" stroke-width="1.5"/>
</svg>
