<svg width="92" height="28" viewBox="0 0 92 28" fill="none" xmlns="http://www.w3.org/2000/svg">
<path d="M73.9709 10.8395C70.6504 9.10109 68.1155 7.75634 65.6696 6.49347C64.7949 6.01792 63.9243 5.62824 63.1307 5.06288C61.9888 4.34164 60.4176 3.55432 61.1925 1.8836C61.9714 0.298743 63.6197 0.9104 64.8306 1.28428C66.1227 1.56835 67.4307 2.19583 68.6496 2.74141C74.303 5.14569 79.9604 7.63582 85.5327 10.1299C87.0149 10.8353 88.5781 11.4509 89.9021 12.4218C92.7202 14.3557 92.6458 16.424 89.7402 18.1077C85.8376 20.354 81.8419 22.4326 77.8463 24.5111C76.1848 25.4487 74.4382 26.3903 72.6796 27.0743C71.6747 27.4652 70.4797 27.4347 69.3778 27.572C68.9257 25.184 70.2629 24.6056 71.426 23.9493C74.3277 22.1797 77.3184 20.492 80.2201 18.7224C81.213 18.074 82.291 17.4216 83.248 16.0005C81.7087 15.9 80.2505 15.7097 78.7153 15.6951C67.2026 15.6281 55.7751 15.5571 44.2624 15.4901C27.5484 15.4068 21.5803 15.3196 4.86227 15.1505C3.49713 15.1279 0.975691 15.178 0.475692 14C1.47569 12 4.52548 11.9814 5.97569 12C14.1506 11.792 15.8623 12.0533 19.1208 12.0131C36.7587 11.7953 54.3965 11.5775 72.0343 11.3597C72.4556 11.2541 72.7068 11.1564 73.9709 10.8395Z" fill="#123AC8"/>
</svg>
