<svg width="316" height="125" viewBox="0 0 316 125" fill="none" xmlns="http://www.w3.org/2000/svg">
<path d="M1.17999 2.21103H0.679993V2.71103V51.7407V52.2407H1.17999H11.9776H12.4776V51.7407V31.3332H32.4072V51.7407V52.2407H32.9072H43.7788H44.2788V51.7407V2.71103V2.21103H43.7788H32.9072H32.4072V2.71103V21.2045H12.4776V2.71103V2.21103H11.9776H1.17999ZM54.4908 40.8579L54.4932 40.8623C56.6073 44.7706 59.5572 47.8087 63.338 49.9664C67.121 52.1255 71.4734 53.1978 76.3803 53.1978C81.2871 53.1978 85.6395 52.1255 89.4226 49.9664L89.4268 49.9639C93.2062 47.7569 96.1312 44.694 98.1958 40.7842L98.197 40.7819C100.261 36.8229 101.286 32.2752 101.286 27.1523C101.286 22.126 100.26 17.6746 98.1945 13.8124C96.1289 9.95071 93.202 6.96073 89.4205 4.85222C85.6379 2.694 81.2862 1.62209 76.3803 1.62209C71.4251 1.62209 67.0478 2.69397 63.264 4.85341C59.4822 7.01173 56.5559 10.0513 54.4908 13.962C52.4258 17.8726 51.4007 22.3721 51.4007 27.4467C51.4007 32.4732 52.4261 36.9479 54.4908 40.8579ZM85.6878 38.6806L85.6846 38.6845C83.3713 41.4572 80.2871 42.8483 76.3803 42.8483C73.805 42.8483 71.5604 42.2088 69.6285 40.9424C67.6929 39.6735 66.1738 37.8843 65.0753 35.5561C64.0259 33.2279 63.4942 30.5285 63.4942 27.4467C63.4942 24.3643 64.0261 21.6644 65.0759 19.3358C66.1749 16.9585 67.6922 15.1734 69.6213 13.9557L69.6239 13.9541C71.6091 12.6837 73.8564 12.0452 76.3803 12.0452C78.9043 12.0452 81.1247 12.6837 83.058 13.9511L83.0579 13.9512L83.0699 13.9586C85.0457 15.1761 86.5599 16.9587 87.608 19.33L87.6079 19.3301L87.6131 19.3411C88.7105 21.6683 89.2664 24.3662 89.2664 27.4467C89.2664 32.17 88.0574 35.8973 85.6878 38.6806ZM111.588 43.142L111.588 43.142L111.592 43.1502C113.364 46.3239 115.847 48.7958 119.035 50.5587C122.226 52.3233 125.91 53.1978 130.074 53.1978C134.238 53.1978 137.923 52.3233 141.114 50.5587C144.303 48.7952 146.763 46.3215 148.485 43.1449C150.256 39.921 151.134 36.2297 151.134 32.0847V2.71103V2.21103H150.634H139.91H139.41V2.71103V31.2749C139.41 34.8249 138.544 37.5963 136.863 39.6423C135.193 41.6271 132.948 42.6274 130.074 42.6274C127.201 42.6274 124.957 41.6279 123.287 39.6448C121.654 37.5988 120.812 34.8262 120.812 31.2749V2.71103V2.21103H120.312H109.514H109.014V2.71103V32.0847C109.014 36.2284 109.868 39.9186 111.588 43.142ZM165.696 52.2259L165.698 52.2265C168.352 52.8745 171.129 53.1978 174.026 53.1978C179.915 53.1978 184.577 51.8566 187.949 49.1101C191.337 46.3514 193.015 42.4943 193.015 37.606C193.015 34.446 192.335 31.8348 190.93 29.8138C189.56 27.7937 187.901 26.2405 185.952 25.1682C184.051 24.1227 181.662 23.0584 178.79 21.9739C178.789 21.9736 178.788 21.9732 178.788 21.9729L175.774 20.8023C175.771 20.8014 175.769 20.8004 175.767 20.7994C173.812 19.9719 172.438 19.2103 171.609 18.5222C170.853 17.8958 170.458 17.0162 170.458 15.8151C170.458 14.4626 171.014 13.4122 172.165 12.6195L172.165 12.6196L172.175 12.6121C173.34 11.7645 175.021 11.309 177.28 11.309C179.101 11.309 181.027 11.5952 183.06 12.1734L183.062 12.1742C185.145 12.7528 187.08 13.5475 188.867 14.5572L189.488 14.9082L189.606 14.2044L191.233 4.48682L191.3 4.08589L190.921 3.93835C186.334 2.15171 181.836 1.254 177.428 1.254C171.634 1.254 167.043 2.62158 163.719 5.42057C160.387 8.22743 158.734 12.0809 158.734 16.9193C158.734 19.8801 159.339 22.3394 160.59 24.2597L160.596 24.2675C161.863 26.1352 163.368 27.6107 165.111 28.6825L165.111 28.6826L165.12 28.688C166.825 29.686 169.067 30.7514 171.84 31.8849L171.847 31.8878L171.854 31.8905C172.236 32.0332 172.565 32.1737 172.841 32.3114L172.873 32.3272L172.907 32.3384C173.194 32.4335 173.454 32.528 173.69 32.6215C173.691 32.622 173.692 32.6224 173.693 32.6228L175.461 33.3564L175.47 33.3597C177.577 34.1891 179.081 34.955 180.013 35.6509L180.019 35.6558L180.026 35.6605C180.863 36.2434 181.291 37.0874 181.291 38.2686C181.291 39.7025 180.651 40.8543 179.296 41.7538C177.922 42.6656 176.104 43.1427 173.804 43.1427C171.793 43.1427 169.576 42.7854 167.149 42.0611C164.774 41.2887 162.495 40.2268 160.311 38.8742L159.623 38.4476L159.55 39.2545L158.662 49.1193L158.634 49.4377L158.911 49.5973C160.832 50.7048 163.096 51.579 165.696 52.2259ZM201.021 2.21103H200.521V2.71103V51.7407V52.2407H201.021H230.973H231.473V51.7407V42.4648V41.9648H230.973H212.097V31.2595H227.645H228.145V30.7595V21.7781V21.2781H227.645H212.097V12.4869H230.973H231.473V11.9869V2.71103V2.21103H230.973H201.021Z" fill="#F7F3EE" stroke="#F7F3EE"/>
<path fill-rule="evenodd" clip-rule="evenodd" d="M60.114 110.603C58.0068 106.612 56.967 102.057 56.967 96.9622C56.967 91.8204 58.0061 87.2399 60.114 83.248C62.2221 79.2559 65.2146 76.1464 69.0805 73.94C72.9504 71.7314 77.4161 70.6427 82.446 70.6427C87.4266 70.6427 91.8658 71.7315 95.7332 73.9376C99.5986 76.0934 102.592 79.1529 104.702 83.0961C106.811 87.0403 107.851 91.5735 107.851 96.6677C107.851 101.857 106.813 106.485 104.706 110.524L104.704 110.529C102.597 114.519 99.6071 117.651 95.7461 119.906L95.7375 119.911C91.8691 122.118 87.4285 123.208 82.446 123.208C77.4635 123.208 73.0229 122.118 69.1545 119.911C65.2907 117.706 62.2756 114.599 60.1187 110.611L60.114 110.603ZM95.2404 74.8031C91.5426 72.6927 87.2778 71.6375 82.446 71.6375C77.5649 71.6375 73.2754 72.6927 69.5776 74.8031C65.8798 76.9135 63.0201 79.8827 60.9987 83.7109C58.9772 87.539 57.9665 91.9561 57.9665 96.9622C57.9665 101.919 58.9772 106.312 60.9987 110.14C63.0694 113.968 65.9537 116.937 69.6515 119.048C73.3494 121.158 77.6142 122.213 82.446 122.213C87.2778 122.213 91.5426 121.158 95.2404 119.048C98.9382 116.888 101.798 113.894 103.819 110.066C105.841 106.189 106.852 101.723 106.852 96.6677C106.852 91.7107 105.841 87.3427 103.819 83.5637C101.798 79.7846 98.9382 76.8644 95.2404 74.8031ZM91.3718 107.877C93.6468 105.205 94.8327 101.601 94.8327 96.9622C94.8327 93.9409 94.2877 91.3166 93.2264 89.066L93.2212 89.0551L93.2163 89.044C92.204 86.7538 90.7528 85.0533 88.8718 83.8942L88.8599 83.8869L88.8482 83.8792C87.003 82.6696 84.88 82.0555 82.446 82.0555C80.0122 82.0555 77.8601 82.6696 75.9606 83.8852L75.9554 83.8885C74.1188 85.0478 72.6612 86.7533 71.5968 89.0549C70.5811 91.3085 70.0593 93.9369 70.0593 96.9622C70.0593 99.9859 70.5806 102.613 71.5953 104.866C72.659 107.119 74.1198 108.832 75.9698 110.045C77.8119 111.253 79.9586 111.869 82.446 111.869C86.2152 111.869 89.1539 110.535 91.3654 107.885L91.3718 107.877ZM70.6869 105.281C69.6022 102.876 69.0599 100.103 69.0599 96.9622C69.0599 93.8211 69.6022 91.0482 70.6869 88.6433C71.8209 86.1894 73.3987 84.3244 75.4201 83.0483C77.4909 81.7232 79.8329 81.0606 82.446 81.0606C85.0591 81.0606 87.3764 81.7232 89.3979 83.0483C91.4687 84.3244 93.0464 86.1894 94.1311 88.6433C95.2651 91.0482 95.8321 93.8211 95.8321 96.9622C95.8321 101.772 94.5995 105.625 92.1343 108.52C89.7184 111.416 86.4889 112.864 82.446 112.864C79.7836 112.864 77.4416 112.201 75.4201 110.876C73.3987 109.551 71.8209 107.686 70.6869 105.281ZM114.003 71.2316H146.102V82.4972H126.725V91.6975H142.774V102.889H126.725V122.251H114.003V71.2316ZM125.726 101.895H141.775V92.6923H125.726V81.5023H145.103V72.2265H115.002V121.256H125.726V101.895ZM166.941 122.223V71.2545L167.917 71.2319C170.049 71.1825 173.189 71.158 177.333 71.158C181.52 71.158 184.659 71.1825 186.742 71.2317C191.699 71.283 196.051 72.291 199.766 74.2924C203.533 76.2458 206.436 79.0569 208.454 82.7123C210.522 86.3678 211.538 90.6134 211.538 95.4162C211.538 100.67 210.37 105.337 208.002 109.386C205.687 113.43 202.392 116.577 198.141 118.821C193.936 121.067 189.067 122.199 183.564 122.251C181.823 122.3 179.226 122.325 175.779 122.325C172.277 122.325 169.652 122.3 167.912 122.251L166.941 122.223ZM183.545 121.256C188.919 121.207 193.628 120.103 197.67 117.943C201.763 115.784 204.918 112.766 207.137 108.888C209.405 105.011 210.539 100.52 210.539 95.4162C210.539 90.7537 209.553 86.6802 207.581 83.1956C205.658 79.711 202.897 77.0362 199.298 75.1712C195.748 73.2571 191.557 72.2755 186.725 72.2265C184.654 72.1774 181.523 72.1528 177.333 72.1528C173.191 72.1528 170.06 72.1774 167.94 72.2265V121.256C169.666 121.305 172.279 121.33 175.779 121.33C179.231 121.33 181.819 121.305 183.545 121.256ZM195.115 85.8867L195.108 85.8796C192.935 83.6731 189.728 82.4972 185.32 82.4972H179.663V110.985H183.471C188.246 110.985 191.886 109.604 194.517 106.939C197.151 104.273 198.52 100.572 198.52 95.7107C198.52 91.3238 197.339 88.1008 195.115 85.8867ZM178.664 111.98V81.5023H185.32C189.905 81.5023 193.406 82.7293 195.822 85.1833C198.287 87.6372 199.519 91.1463 199.519 95.7107C199.519 100.766 198.09 104.741 195.23 107.637C192.37 110.532 188.451 111.98 183.471 111.98H178.664ZM217.643 71.2316H249.594V82.4972H230.217V90.2987H246.266V101.27H230.217V110.985H249.594V122.251H217.643V71.2316ZM229.218 111.98V100.275H245.267V91.2936H229.218V81.5023H248.595V72.2265H218.642V121.256H248.595V111.98H229.218ZM252.896 71.2316H266.857L277.804 106.265L288.681 71.2316H301.828L284.589 122.251H270.212L252.896 71.2316ZM277.807 109.624L266.122 72.2265H254.289L270.929 121.256H283.871L300.437 72.2265H289.418L277.807 109.624ZM306.563 124.754C304.215 124.754 302.164 123.879 300.458 122.18C298.793 120.524 297.946 118.505 297.946 116.176C297.946 113.806 298.788 111.761 300.458 110.099C302.164 108.4 304.215 107.525 306.563 107.525C308.952 107.525 311.009 108.394 312.675 110.105C314.34 111.766 315.18 113.809 315.18 116.176C315.18 118.502 314.335 120.519 312.675 122.174C311.009 123.885 308.952 124.754 306.563 124.754ZM311.962 121.477C313.441 120.005 314.181 118.238 314.181 116.176C314.181 114.066 313.441 112.275 311.962 110.802C310.483 109.281 308.683 108.52 306.563 108.52C304.492 108.52 302.693 109.281 301.164 110.802C299.685 112.275 298.946 114.066 298.946 116.176C298.946 118.238 299.685 120.005 301.164 121.477C302.693 122.998 304.492 123.759 306.563 123.759C308.683 123.759 310.483 122.998 311.962 121.477Z" fill="#F7F3EE"/>
</svg>
